<svg width="20" height="20" viewBox="0 0 20 20" fill="none" xmlns="http://www.w3.org/2000/svg">
<path d="M9.66667 0C7.04056 0 6.71269 0.0120833 5.68158 0.058C4.65208 0.106333 3.95125 0.26825 3.335 0.5075C2.69942 0.754 2.15969 1.08508 1.62239 1.62239C1.08508 2.15969 0.753194 2.69861 0.5075 3.335C0.26825 3.95125 0.105528 4.65208 0.058 5.68158C0.00966667 6.71269 0 7.04056 0 9.66667C0 12.2928 0.0120833 12.6206 0.058 13.6518C0.106333 14.6804 0.26825 15.3821 0.5075 15.9983C0.750207 16.6435 1.13068 17.2279 1.62239 17.7109C2.10514 18.203 2.68967 18.5835 3.335 18.8258C3.95206 19.0643 4.65289 19.2278 5.68158 19.2753C6.71269 19.3237 7.04056 19.3333 9.66667 19.3333C12.2928 19.3333 12.6206 19.3213 13.6518 19.2753C14.6804 19.227 15.3821 19.0643 15.9983 18.8258C16.6433 18.5828 17.2277 18.2024 17.7109 17.7109C18.2032 17.2283 18.5837 16.6438 18.8258 15.9983C19.0643 15.3821 19.2278 14.6804 19.2753 13.6518C19.3237 12.6206 19.3333 12.2928 19.3333 9.66667C19.3333 7.04056 19.3213 6.71269 19.2753 5.68158C19.227 4.65289 19.0643 3.95044 18.8258 3.335C18.583 2.68993 18.2026 2.1055 17.7109 1.62239C17.2285 1.12991 16.6439 0.74932 15.9983 0.5075C15.3821 0.26825 14.6804 0.105528 13.6518 0.058C12.6206 0.00966667 12.2928 0 9.66667 0ZM9.66667 1.74C12.2469 1.74 12.5546 1.75289 13.5736 1.79719C14.5161 1.8415 15.0276 1.99778 15.3676 2.1315C15.8203 2.30631 16.1409 2.51575 16.4809 2.85328C16.8184 3.19161 17.0278 3.51303 17.2026 3.96575C17.3348 4.30569 17.4926 4.81722 17.5353 5.75972C17.5813 6.77956 17.5917 7.08567 17.5917 9.66667C17.5917 12.2477 17.5796 12.5546 17.5321 13.5736C17.483 14.5161 17.3259 15.0276 17.193 15.3676C17.0357 15.7871 16.7885 16.1671 16.4688 16.4809C16.1563 16.8009 15.7766 17.0475 15.3571 17.2026C15.0188 17.3348 14.4992 17.4926 13.5567 17.5353C12.5304 17.5813 12.2283 17.5917 9.6425 17.5917C7.05586 17.5917 6.75378 17.5796 5.72831 17.5321C4.785 17.483 4.26542 17.3259 3.92708 17.193C3.50731 17.0377 3.12771 16.7902 2.81622 16.4688C2.49286 16.1584 2.24485 15.7782 2.09122 15.3571C1.95831 15.0188 1.80203 14.4992 1.75289 13.5567C1.71664 12.5417 1.70375 12.2283 1.70375 9.65458C1.70375 7.08003 1.71664 6.76586 1.75289 5.73878C1.80203 4.79628 1.95831 4.2775 2.09122 3.93917C2.26039 3.48 2.47708 3.16583 2.81622 2.82669C3.15375 2.48917 3.46872 2.27167 3.92708 2.10331C4.26542 1.96958 4.77372 1.8125 5.71622 1.76417C6.74331 1.72792 7.04539 1.71583 9.63042 1.71583L9.66667 1.74ZM9.66667 4.70283C9.01481 4.70283 8.36933 4.83123 7.76709 5.08068C7.16485 5.33014 6.61764 5.69577 6.15671 6.15671C5.69577 6.61764 5.33014 7.16485 5.08068 7.76709C4.83123 8.36933 4.70283 9.01481 4.70283 9.66667C4.70283 10.3185 4.83123 10.964 5.08068 11.5662C5.33014 12.1685 5.69577 12.7157 6.15671 13.1766C6.61764 13.6376 7.16485 14.0032 7.76709 14.2527C8.36933 14.5021 9.01481 14.6305 9.66667 14.6305C10.9832 14.6305 12.2457 14.1075 13.1766 13.1766C14.1075 12.2457 14.6305 10.9832 14.6305 9.66667C14.6305 8.35018 14.1075 7.08761 13.1766 6.15671C12.2457 5.22581 10.9832 4.70283 9.66667 4.70283ZM9.66667 12.8889C7.88639 12.8889 6.44444 11.4469 6.44444 9.66667C6.44444 7.88639 7.88639 6.44444 9.66667 6.44444C11.4469 6.44444 12.8889 7.88639 12.8889 9.66667C12.8889 11.4469 11.4469 12.8889 9.66667 12.8889ZM15.9871 4.50708C15.9759 4.80725 15.8488 5.0914 15.6324 5.29981C15.4161 5.50821 15.1274 5.62465 14.8271 5.62465C14.5267 5.62465 14.238 5.50821 14.0217 5.29981C13.8054 5.0914 13.6782 4.80725 13.6671 4.50708C13.6671 4.19943 13.7893 3.90438 14.0068 3.68684C14.2244 3.4693 14.5194 3.34708 14.8271 3.34708C15.1347 3.34708 15.4298 3.4693 15.6473 3.68684C15.8648 3.90438 15.9871 4.19943 15.9871 4.50708Z" fill="#FAFAFA"/>
</svg>
